<svg xmlns="http://www.w3.org/2000/svg" width="75.191" height="75.034" viewBox="0 0 75.191 75.034">
  <g id="Group_86" data-name="Group 86" transform="translate(-44.809 -83.966)">
    <circle id="Ellipse_39" data-name="Ellipse 39" cx="37.5" cy="37.5" r="37.5" transform="translate(45 84)"/>
    <g id="Group_85" data-name="Group 85">
      <g id="Group_84" data-name="Group 84">
        <path id="Path_126" data-name="Path 126" d="M77.353,121.585v18.332a.478.478,0,0,0,.478.477h6.807a.478.478,0,0,0,.477-.477V121.286h4.936a.478.478,0,0,0,.476-.437L91,115.236a.478.478,0,0,0-.476-.518h-5.41v-3.982a1.69,1.69,0,0,1,1.69-1.69h3.8a.477.477,0,0,0,.477-.478v-5.613a.477.477,0,0,0-.477-.478H84.182a6.829,6.829,0,0,0-6.829,6.829v5.412h-3.4a.478.478,0,0,0-.477.478v5.613a.477.477,0,0,0,.477.477h3.4Z" fill="#fff" fill-rule="evenodd"/>
      </g>
      <path id="Path_127" data-name="Path 127" d="M82.279,83.966a37.47,37.47,0,1,0,37.47,37.47A37.512,37.512,0,0,0,82.279,83.966Zm32.664,37.47A32.665,32.665,0,1,1,82.279,88.771,32.7,32.7,0,0,1,114.943,121.436Z"/>
    </g>
  </g>
</svg>
