<svg xmlns="http://www.w3.org/2000/svg" width="206.475" height="206.475" viewBox="0 0 206.475 206.475">
  <g id="Group_9" data-name="Group 9" transform="translate(2673.193 546.594) rotate(135)">
    <circle id="Ellipse_6" data-name="Ellipse 6" cx="73" cy="73" r="73" transform="translate(1430.733 2057.733)" fill="#ff6f00"/>
    <path id="arrow-right-short" d="M0,26.885a3.84,3.84,0,0,1,3.84-3.84H48.33L31.841,6.564a3.845,3.845,0,0,1,5.437-5.437l23.04,23.04a3.84,3.84,0,0,1,0,5.437l-23.04,23.04a3.845,3.845,0,0,1-5.437-5.437L48.33,30.725H3.84A3.84,3.84,0,0,1,0,26.885Z" transform="translate(1463.139 2133.589) rotate(-45)" fill="#fff" fill-rule="evenodd"/>
  </g>
</svg>
