<svg xmlns="http://www.w3.org/2000/svg" width="75.223" height="75" viewBox="0 0 75.223 75">
  <g id="Group_94" data-name="Group 94" transform="translate(-271 -84)">
    <g id="Group_93" data-name="Group 93">
      <g id="Group_92" data-name="Group 92">
        <circle id="Ellipse_37" data-name="Ellipse 37" cx="37.5" cy="37.5" r="37.5" transform="translate(271 84)"/>
        <path id="Path_132" data-name="Path 132" d="M321.24,111.166A2.244,2.244,0,1,1,319,108.921,2.245,2.245,0,0,1,321.24,111.166Zm-2.795,10.062a9.428,9.428,0,1,1-9.428-9.428A9.439,9.439,0,0,1,318.445,121.228Zm-3.388,0a6.04,6.04,0,1,0-6.04,6.04A6.047,6.047,0,0,0,315.057,121.228Zm13.044-7.574a11.5,11.5,0,0,0-11.5-11.5H300.907a11.5,11.5,0,0,0-11.5,11.5v15.694a11.5,11.5,0,0,0,11.5,11.5H316.6a11.5,11.5,0,0,0,11.5-11.5Zm-3.776,15.521a7.9,7.9,0,0,1-7.9,7.9H301.08a7.9,7.9,0,0,1-7.9-7.9V113.827a7.9,7.9,0,0,1,7.9-7.9h15.347a7.9,7.9,0,0,1,7.9,7.9Z" fill="#fff"/>
      </g>
      <path id="Path_133" data-name="Path 133" d="M308.753,84.031a37.47,37.47,0,1,0,37.47,37.47A37.512,37.512,0,0,0,308.753,84.031Zm0,70.135A32.665,32.665,0,1,1,341.418,121.5,32.7,32.7,0,0,1,308.753,154.166Z"/>
    </g>
  </g>
</svg>
