<svg id="vertical" xmlns="http://www.w3.org/2000/svg" xmlns:xlink="http://www.w3.org/1999/xlink" width="197.483" height="65.721" viewBox="0 0 197.483 65.721">
  <defs>
    <linearGradient id="linear-gradient" x1="0.064" y1="0.195" x2="1.027" y2="0.382" gradientUnits="objectBoundingBox">
      <stop offset="0.188" stop-color="#fc7698"/>
      <stop offset="0.823" stop-color="#a629c2"/>
    </linearGradient>
  </defs>
  <path id="Path_34335" data-name="Path 34335" d="M89.145,70a32.863,32.863,0,1,0,0-.006Z" transform="translate(-89.145 -37.144)" fill="#4bb9bf"/>
  <path id="Path_34336" data-name="Path 34336" d="M314.16,71.637a32.783,32.783,0,0,0-3.287-5.565C293.84,63.566,283.152,56.68,278.6,53.116a32.887,32.887,0,0,0-21.818,14.472A148.109,148.109,0,0,0,314.16,71.637Z" transform="translate(-251.49 -52.61)" fill="#a629c2"/>
  <path id="Path_34337" data-name="Path 34337" d="M953.058,37.144a33.645,33.645,0,0,0-5.746.5c4.548,3.564,15.236,10.452,32.269,12.958a32.814,32.814,0,0,0-26.524-13.463Z" transform="translate(-920.199 -37.144)" fill="#fc6d91"/>
  <path id="Path_34338" data-name="Path 34338" d="M181.921,1452.842a32.658,32.658,0,0,0,14.629-3.436c-24.119-5.518-38.441-13.376-45.534-18.239A32.867,32.867,0,0,0,181.921,1452.842Z" transform="translate(-149.06 -1387.122)" fill="#fc6d91"/>
  <path id="Path_34339" data-name="Path 34339" d="M169.783,1265.967c-31.1,3.7-53.543-.465-63.923-3.192a32.437,32.437,0,0,0,1.426,5.32c7.094,4.863,21.416,12.722,45.534,18.239A32.9,32.9,0,0,0,169.783,1265.967Z" transform="translate(-105.332 -1224.051)" fill="#a629c2"/>
  <path id="Path_34340" data-name="Path 34340" d="M256.089,529.016a32.714,32.714,0,0,0-3.05-13.832,148.057,148.057,0,0,1-57.373-4.051,32.039,32.039,0,0,0-1.994,3.515c6.3,4.564,25.569,16.048,62.22,17.978A34.026,34.026,0,0,0,256.089,529.016Z" transform="translate(-190.37 -496.157)" fill="#4bb9bf"/>
  <path id="Path_34341" data-name="Path 34341" d="M153.6,645.822a32.806,32.806,0,0,0,1.072-5.446c-36.651-1.931-55.923-13.415-62.22-17.978a32.751,32.751,0,0,0-3.3,14.369,33.387,33.387,0,0,0,.528,5.864C100.053,645.357,122.494,649.53,153.6,645.822Z" transform="translate(-89.145 -603.905)" fill="#fc6d91"/>
  <path id="Path_34342" data-name="Path 34342" d="M386.3,1053.947c-1.332-3.279-4.469-4.981-7.937-5.163a5.47,5.47,0,0,0-4.981,2.506,5.043,5.043,0,0,1,2.16-.568c-1.86,1.269-2.23,4.2-2.23,4.2a.769.769,0,0,0-1.033-.457c-.41.182-.15.883-.15.883a2.288,2.288,0,0,0,.426,3.413c.6.521,1.127.646.7,1.017-.631.426-2.53-1.568-2.845-2.089s-1.419-2.207-1.844-2.838a12.857,12.857,0,0,1-.923-1.9c1.505-.788,1.774-1.86,1.624-2.215s-.6-.22-.6-.22c.182-.332.268-1.143-.173-1.348s-.741.552-.741.552c0-.536-.22-1.009-.717-1.087s-.465,1.072-.426,1.458-.04,1-.26,1.056-.458,0-.622-.409-.646-.757-.946-.276.41,1.363.891,1.789a1.343,1.343,0,0,1,.442,1.017,18.239,18.239,0,0,0,3.564,9.648c.112.465.016,1.2-1.442,3.9a15.913,15.913,0,0,0-1.679,6.692c-.016.867.741.339,1.087.631s.8,3.7.867,3.964.189,1.183.465.685,1.545-.685,1.545-.685a8.673,8.673,0,0,0,.67,3.121,32.533,32.533,0,0,0,3.468-1.166,17.164,17.164,0,0,1-.725-1.876.905.905,0,0,1,.575-.04c.26.094.867.425.8-.221a22.172,22.172,0,0,1,.166-3.878,2.558,2.558,0,0,1,.414-.126c.26-.056.04-.536-.158-.977a13.51,13.51,0,0,1-.93-6.92,22.017,22.017,0,0,1,2.072,3.286c.181.37.332.9-.283,1.183s-.733.678-.607,1.1.685.166,1.087.04.5.22.536.536-.11,1.213.536,1.269.591-1.309.591-1.309c.094.346.4,1.143,1.127,1.033s.083-1.474.083-1.474c.355.4.725.607,1.056.083s-1.387-1.568-1.639-1.789a1.326,1.326,0,0,1-.741-1.143,29.9,29.9,0,0,0-2.617-6.51c-.41-.631.016-.631.016-.631.757.465,4.186,1.979,7.031.725a6.809,6.809,0,0,0,3.253-8.473Zm-24.908-3.744c-.332,0-.835.907-1.033.922s-.386-.386-.409-.977.3-1.293-.292-1.356-.67.985-.67.985c-.126-.292-.249-.788-.772-.607s-.182,1.222-.182,1.222c-.26-.094-.481.083-.536.458-.071.883,1.492,2.033,1.492,2.033a3.956,3.956,0,0,1-.678,1.474,15.99,15.99,0,0,0-1.678,2.838,7.3,7.3,0,0,1-2.325,2.38c-.717.521-1.072.37-1.166.15s.283-.37.283-.37a3.15,3.15,0,0,0,1.679-2.562,1.676,1.676,0,0,0-.559-1.277.632.632,0,0,0-.276-.954c-.536-.283-.995.386-.995.386a7.813,7.813,0,0,0-2.089-4.138,3.848,3.848,0,0,1,1.939.395c-2.861-4.027-8.946-2.4-11.421.4a6.92,6.92,0,0,0-1.789,5.754c-1.584.024-1.348,1.388-1.348,1.388-3.192,3.689,1.458,7.488,2.641,8.907a5.328,5.328,0,0,1,1.237,2.917c3.342-3.192.276-6.637-1.056-7.858a4.537,4.537,0,0,1-1.505-2.325c.829.442,1.213-.11,1.213-.11,3.595,4.724,9.648,1.238,9.648,1.238a68.545,68.545,0,0,0-3.027,8.173c-1.679.867-2.246,1.474-2.176,1.915s1.087.056,1.087.056c-.166.315-.7,1.222-.166,1.5s1.309-1.048,1.309-1.048c0,.607-.071,1.363.591,1.363s.757-1.828.757-1.828c.552.15,1.127.686,1.309.056s-.922-1.734-.922-1.734c-.031-.631,2.144-3.878,2.144-3.878.37.922.22,2.917-.332,5.281a31.031,31.031,0,0,0-.37,6.6c0,.591,1.734-.3,1.734-.3a6.617,6.617,0,0,1-1.017,2.893,31.784,31.784,0,0,0,3.6,1.025,34.75,34.75,0,0,0,1.033-4.227c.457-.055,2.688-.11,3.279-.134a3.042,3.042,0,0,0,1.663-.276c.371-.292-.056-2.6-.591-4.776a53.934,53.934,0,0,0-2.652-6.962c-.37-.788-1.16-2.321-1.16-2.321,3.665-4.139,3.8-10.373,3.8-10.373.426-.442,1.363-1.1,1.326-1.624s-.242-.694-.573-.694Z" transform="translate(-329.617 -1016.673)" fill="#fff"/>
  <path id="Path_34343" data-name="Path 34343" d="M986.143,689.7h-1.072a2.871,2.871,0,0,1-2.546-1.853l-.332-1.017c-.332-1.017-.867-1.017-1.2,0l-.332,1.017a2.872,2.872,0,0,1-2.546,1.853h-1.072c-1.072,0-1.237.512-.37,1.143l.867.622a2.875,2.875,0,0,1,.97,3l-.331,1.017c-.332,1.024.11,1.34.977.71l.859-.631a2.894,2.894,0,0,1,3.15,0l.859.631c.867.631,1.309.315.977-.71l-.331-1.017a2.874,2.874,0,0,1,.97-3l.867-.622C987.38,690.212,987.214,689.7,986.143,689.7Z" transform="translate(-948.096 -665.565)" fill="#fff"/>
  <path id="Path_34344" data-name="Path 34344" d="M620,593.253h-.71a1.906,1.906,0,0,1-1.695-1.229l-.221-.678c-.22-.678-.58-.678-.8,0l-.22.678a1.906,1.906,0,0,1-1.695,1.229h-.717c-.71,0-.82.346-.245.765l.575.414a1.906,1.906,0,0,1,.647,1.994l-.221.678c-.213.678.083.891.654.473l.575-.414a1.906,1.906,0,0,1,2.1,0l.575.414c.575.414.867.2.646-.473l-.221-.678a1.925,1.925,0,0,1,.654-1.994l.575-.414C620.83,593.6,620.719,593.253,620,593.253Z" transform="translate(-596.766 -573.343)" fill="#fff"/>
  <path id="Path_34345" data-name="Path 34345" d="M1403.5,532.07h-.615a1.64,1.64,0,0,1-1.458-1.064l-.189-.58c-.189-.58-.5-.58-.686,0l-.189.58a1.658,1.658,0,0,1-1.466,1.064h-.607c-.615,0-.71.292-.213.654l.489.355a1.646,1.646,0,0,1,.559,1.718l-.189.58c-.189.58.063.764.56.409l.5-.362a1.633,1.633,0,0,1,1.805,0l.5.362c.5.355.741.173.552-.409l-.189-.58a1.646,1.646,0,0,1,.56-1.718l.5-.355C1404.206,532.362,1404.112,532.07,1403.5,532.07Z" transform="translate(-1356.409 -514.414)" fill="#fff"/>
  <path id="Path_34346" data-name="Path 34346" d="M875.226,256.354l.559.409c.568.41.851.2.631-.465l-.213-.663a1.871,1.871,0,0,1,.631-1.947l.568-.41c.56-.409.458-.741-.245-.741h-.694a1.853,1.853,0,0,1-1.658-1.206l-.22-.663c-.213-.663-.568-.663-.78,0l-.213.663a1.873,1.873,0,0,1-1.664,1.206h-.694c-.694,0-.8.332-.244.741l.568.41a1.871,1.871,0,0,1,.631,1.947l-.213.663c-.213.663.071.875.631.465l.568-.409A1.861,1.861,0,0,1,875.226,256.354Z" transform="translate(-845.945 -243.443)" fill="#fff"/>
  <path id="Path_34347" data-name="Path 34347" d="M1890.881,819.393h-.378a.994.994,0,0,1-.891-.654l-.119-.355c-.119-.362-.308-.362-.426,0l-.118.355a1,1,0,0,1-.891.654h-.378c-.378,0-.442.182-.134.4l.307.22a1.013,1.013,0,0,1,.339,1.056l-.11.355c-.119.362.031.472.339.249l.308-.221a1,1,0,0,1,1.1,0l.307.221c.307.221.458.11.347-.249l-.118-.355a1.012,1.012,0,0,1,.339-1.056l.308-.22C1891.322,819.572,1891.259,819.393,1890.881,819.393Z" transform="translate(-1830.536 -793.435)" fill="#fff"/>
  <path id="Path_34348" data-name="Path 34348" d="M451.2,898.5h-.41a1.084,1.084,0,0,1-.961-.7l-.126-.386c-.126-.386-.332-.386-.457,0l-.126.386a1.086,1.086,0,0,1-.97.7h-.4c-.41,0-.473.2-.142.433l.332.245a1.088,1.088,0,0,1,.363,1.135l-.119.386c-.126.386.04.5.363.268l.332-.236a1.071,1.071,0,0,1,1.2,0l.323.236c.332.236.5.118.37-.268l-.126-.386a1.077,1.077,0,0,1,.37-1.135l.332-.245C451.676,898.7,451.6,898.5,451.2,898.5Z" transform="translate(-436.077 -869.951)" fill="#fff"/>
  <path id="Path_34349" data-name="Path 34349" d="M1679.076,365.1h-.375a1.006,1.006,0,0,1-.9-.654l-.11-.355c-.118-.362-.307-.362-.426,0l-.119.355a1.006,1.006,0,0,1-.9.654h-.378c-.37,0-.433.182-.126.4l.3.22a1,1,0,0,1,.346,1.056l-.118.355c-.119.362.04.473.347.249l.3-.22a1.015,1.015,0,0,1,1.111,0l.308.22c.3.22.458.11.339-.249l-.118-.355a1.017,1.017,0,0,1,.347-1.056l.307-.22C1679.509,365.283,1679.455,365.1,1679.076,365.1Z" transform="translate(-1625.423 -353.499)" fill="#fff"/>
  <path id="Path_34350" data-name="Path 34350" d="M1292.529,179.26h-.283a.787.787,0,0,1-.694-.5l-.083-.268c-.083-.276-.236-.276-.323,0l-.083.268a.786.786,0,0,1-.694.5h-.283c-.292,0-.339.142-.1.307l.236.173a.775.775,0,0,1,.26.8l-.083.276c-.094.276.024.362.26.189l.236-.166a.746.746,0,0,1,.844,0l.236.166c.236.173.355.083.26-.189l-.083-.276a.765.765,0,0,1,.268-.8l.229-.173C1292.868,179.4,1292.82,179.26,1292.529,179.26Z" transform="translate(-1251.889 -173.821)" fill="#fff"/>
  <path id="Path_34351" data-name="Path 34351" d="M245.979,1242.982H245.7a.76.76,0,0,1-.685-.5l-.094-.276c-.083-.276-.236-.276-.323,0l-.083.276a.779.779,0,0,1-.694.5h-.291c-.292,0-.339.142-.1.315l.236.166a.793.793,0,0,1,.26.811l-.083.276c-.094.268.024.355.26.189l.236-.173a.791.791,0,0,1,.851,0l.229.173c.236.166.355.079.268-.189l-.094-.276a.782.782,0,0,1,.268-.811l.229-.166C246.318,1243.124,246.27,1242.982,245.979,1242.982Z" transform="translate(-238.404 -1203.934)" fill="#fff"/>
  <path id="Path_34352" data-name="Path 34352" d="M579.108,291.109l.173.126a.571.571,0,0,1,.2.591l-.071.2c-.063.2.024.26.2.142l.173-.126a.559.559,0,0,1,.622,0l.173.126c.166.119.249.056.189-.142l-.063-.2a.552.552,0,0,1,.189-.591l.173-.126c.173-.126.134-.229-.071-.229h-.213a.566.566,0,0,1-.5-.362l-.071-.2c-.063-.2-.173-.2-.236,0l-.063.2a.575.575,0,0,1-.5.362h-.214C578.974,290.882,578.943,290.983,579.108,291.109Z" transform="translate(-563.525 -282.171)" fill="#fff"/>
  <path id="Path_34353" data-name="Path 34353" d="M1842.82,1456.5a.693.693,0,0,1-.615-.449l-.079-.244c-.083-.249-.213-.249-.292,0l-.083.244a.692.692,0,0,1-.615.449h-.26c-.249,0-.3.119-.083.276l.213.15a.686.686,0,0,1,.229.725l-.083.245c-.083.244.032.323.236.173l.213-.15a.663.663,0,0,1,.757,0l.213.15c.213.15.315.071.236-.173l-.083-.245a.69.69,0,0,1,.236-.725l.2-.15c.213-.158.173-.276-.083-.276Z" transform="translate(-1785.312 -1410.803)" fill="#fff"/>
  <path id="Path_34354" data-name="Path 34354" d="M1623.6,918.019a.746.746,0,0,1-.663-.481l-.083-.268c-.083-.26-.229-.26-.315,0l-.083.268a.746.746,0,0,1-.663.481h-.276c-.276,0-.323.126-.094.292l.22.166a.738.738,0,0,1,.249.78l-.083.26c-.083.268.024.346.249.182l.22-.158a.739.739,0,0,1,.82,0l.22.158c.229.166.339.083.249-.182l-.083-.26a.756.756,0,0,1,.26-.78l.22-.166c.229-.166.181-.292-.094-.292Z" transform="translate(-1572.867 -889.273)" fill="#fff"/>
  <path id="Path_34355" data-name="Path 34355" d="M246.767,779.815h-.37a1,1,0,0,1-.883-.638l-.119-.355c-.11-.346-.3-.346-.41,0l-.119.355a.982.982,0,0,1-.883.638h-.362c-.37,0-.433.182-.134.394l.3.22a1,1,0,0,1,.339,1.033l-.119.355c-.11.355.04.458.339.245l.3-.22a1.007,1.007,0,0,1,1.087,0l.3.22c.3.213.449.11.339-.245l-.119-.355a1,1,0,0,1,.339-1.033l.3-.22C247.192,780,247.137,779.815,246.767,779.815Z" transform="translate(-238.428 -755.137)" fill="#fff"/>
  <path id="Path_34356" data-name="Path 34356" d="M2242.04,208.707l17.534,34.123c-5.71.315-11.06.675-11.06.675l-2.383-5.935-5.575.315-1.888,5.485c-1.8-.135-9.8-.4-9.8-.4Zm0,20.726,1.933-.045-.944-3.012S2242.084,229.434,2242.04,229.434Zm20.354,14.252.54-29.537,10.745,10.745,12.408-12.994,4.72,31.247-10.3.54-3.057-6.654-3.5,6.2-3.552-6.564-1.168,6.969S2262.124,243.955,2262.394,243.685Zm32.253,0,.54-29.537,10.745,10.745,12.407-12.994,4.72,31.247-10.294.54-3.057-6.654-3.508,6.2-3.552-6.564-1.168,6.969s-7.1.312-6.835.043Zm43.493-34.977,17.535,34.123c-5.71.315-11.06.675-11.06.675l-2.382-5.935-5.576.315-1.888,5.485c-1.8-.135-9.8-.4-9.8-.4Zm0,20.726,1.933-.045-.945-3.012s-.942,3.056-.989,3.056ZM2227.471,262.26l-.037-12.807c1.585-.056,4.754.075,4.754.075l.224,3.822,3.784-3.822,2.591,3.02L2234.649,256l4.94,2.072c-1.565,2.181-2.535,3.468-2.535,3.468l-5.125-3.338.2,3.766Zm14.264-7.345,3.505-.166a72.629,72.629,0,0,1,.3,7.364,34.271,34.271,0,0,1-4.807-.019Zm3.915-1.995a3.05,3.05,0,0,1-3.315.671,2.612,2.612,0,0,1-1.119-4.061,3.194,3.194,0,0,1,2.7-1.286,2.659,2.659,0,0,1,2.554,2.8,3,3,0,0,1-.823,1.882Zm2.343.037,4.959,2.443.056-5.611c1.9-.018,3.468.056,4.829.166,0,.559-1.286,12.361-1.286,12.361L2251,259.7l.149,2.5c-.764-.112-3.523-.912-3.523-.912Zm11.494-3.486c.316-.112,9.788-.559,9.135,6.208-.652,6.748-8.818,6.413-8.818,6.413Zm3.971,7.178c1.622-.428,1.137-2.312-.166-2.013q.082,1.009.167,2.015Zm6.894,5.553V249.9c3.225-.149,7.233-.3,7.233-.3v2.554l-3.095-.056.019.912,2.182.019.056,3.953-2.312-.056.074,2.238,3.021-.166.019,3.225Zm9-12.323c13.344-2.238,9.937,6.413,4.549,7.494l4.642,1.752-1.884,3.337-3.392-2.331-.055,2.386s-3.524-.224-3.449-.279Zm3.784,4.884c-.019-.037.912-.727.912-1.174s-.912-.354-.912-.354Zm17.387-4.456-.056,2.74c-3.916-1.379-5.108,1.528-4.9,3.169.28,2.256,2.144,2.61,3.132.652l-1.343-.112-.428-2.032,4.6-.783c.055,3-.056,7.513-.056,7.513-4.213,1.342-11.112,1.436-11.54-4.53-.165-2.144.58-5.91,4.1-7.121a8.406,8.406,0,0,1,6.489.509Zm7.6-2.535,7.268,14.157c-2.367.13-4.586.279-4.586.279l-.988-2.461-2.311.13-.784,2.274c-.746-.056-4.061-.166-4.061-.166Zm0,8.594.8-.019-.392-1.249s-.39,1.273-.409,1.273Zm8.365-6.487c13.344-2.238,9.937,6.413,4.549,7.494l4.641,1.752-1.884,3.337-3.392-2.331-.056,2.386s-3.523-.224-3.448-.279Zm3.785,4.884c-.019-.037.912-.727.912-1.174s-.912-.354-.912-.354Zm6.834-.746-.3-4.176c5.146-.112,10.048,0,10.048,0l-.166,3.564-2.461.242-.317,8.482-3.8-.242-.056-8.109Zm11.218,8.184V249.9c3.225-.149,7.232-.3,7.232-.3v2.554l-3.095-.056.019.912,2.182.019.056,3.953-2.312-.056.074,2.238L2345.5,259l.019,3.225Zm9.187-9.247,4.959,2.443.055-5.611c1.906-.018,3.468.056,4.829.166,0,.559-1.287,12.361-1.287,12.361l-5.553-2.61.149,2.5c-.764-.112-3.524-.912-3.524-.912Z" transform="translate(-2159.874 -203.287)" fill="url(#linear-gradient)"/>
</svg>
