<svg xmlns="http://www.w3.org/2000/svg" xmlns:xlink="http://www.w3.org/1999/xlink" width="359.227" height="157.331" viewBox="0 0 359.227 157.331">
  <defs>
    <linearGradient id="linear-gradient" x1="0.172" y1="1.379" x2="0.772" y2="0.625" gradientUnits="objectBoundingBox">
      <stop offset="0" stop-color="#1882b0"/>
      <stop offset="1" stop-color="#32bacf"/>
    </linearGradient>
    <linearGradient id="linear-gradient-2" x1="0.114" y1="0.275" x2="0.931" y2="0.013" gradientUnits="objectBoundingBox">
      <stop offset="0" stop-color="#f26d2d"/>
      <stop offset="1" stop-color="#f6922d"/>
    </linearGradient>
  </defs>
  <g id="Layer_2" data-name="Layer 2" transform="translate(121.942 -363)">
    <g id="Layer_1" data-name="Layer 1" transform="translate(-121.942 363)">
      <path id="Path_92" data-name="Path 92" d="M9.616,23.772l46.568,70.6.111.172a11.6,11.6,0,0,1-3.379,15.933l-.219.141a11.642,11.642,0,0,1-8.532,1.563l-.23-.05a11.6,11.6,0,0,1-7.163-4.915L11.281,68.885A43.242,43.242,0,0,1,9.616,23.772ZM47.4,1.663h.421A43.411,43.411,0,0,1,83.634,21.006l14.314,21.53.111.169a11.6,11.6,0,0,1-3.371,15.944l-.172.111a11.667,11.667,0,0,1-15.972-3.371L42.618,1.94A43.869,43.869,0,0,1,47.4,1.663ZM25.976,0h.219a12.571,12.571,0,0,1,10.24,5.613l8.36,12.557-.294-.022a20.047,20.047,0,0,0-12.41,3.276l-.277.18a19.958,19.958,0,0,0-7.684,10.228L15.783,19.279l-.114-.175A12.371,12.371,0,0,1,19.1,2.134l.053-.036.053-.036.055-.036.055-.036A12.077,12.077,0,0,1,25.976,0Z" transform="translate(-2.954 0)" fill-rule="evenodd" fill="url(#linear-gradient)"/>
      <path id="Path_93" data-name="Path 93" d="M75.8,240.954l8.346,12.557.114.177a12.371,12.371,0,0,1-3.426,16.97l-.055.036-.053.036-.055.036-.053.036-.175.114A12.435,12.435,0,0,1,63.5,267.176l-8.349-12.557.3.022A19.994,19.994,0,0,0,75.8,240.957Zm-64.12-28.745a11.642,11.642,0,0,1,9.7,5.189l35.927,53.454a43.749,43.749,0,0,1-13.449-.6A43.281,43.281,0,0,1,16.3,251.77L1.983,230.24a11.625,11.625,0,0,1,9.7-18.031ZM53.033,159.75h.23a11.642,11.642,0,0,1,9.5,5.192L88.65,203.893l.277.421a43.242,43.242,0,0,1,1.386,44.692L43.34,177.79l-.114-.172a11.625,11.625,0,0,1,9.807-17.868Z" transform="translate(-0.058 -115.468)" fill-rule="evenodd" fill="url(#linear-gradient-2)"/>
      <path id="Path_94" data-name="Path 94" d="M443.3,312.579a22.4,22.4,0,0,1-7.382-3.462l3.263-7.235a22.09,22.09,0,0,0,6.342,3.143,23.875,23.875,0,0,0,7.354,1.178q4.094,0,6.051-1.217a3.671,3.671,0,0,0,1.96-3.218,3.091,3.091,0,0,0-1.159-2.464,8.8,8.8,0,0,0-2.966-1.569q-1.8-.59-4.89-1.306a66.363,66.363,0,0,1-7.761-2.256,12.524,12.524,0,0,1-5.189-3.6,9.786,9.786,0,0,1-2.168-6.653,11.576,11.576,0,0,1,1.957-6.542,13.157,13.157,0,0,1,5.9-4.654A24.082,24.082,0,0,1,454.237,271a32.051,32.051,0,0,1,7.761.945,22.919,22.919,0,0,1,6.653,2.73l-2.963,7.293a23.2,23.2,0,0,0-11.506-3.263q-4.036,0-5.96,1.306a3.993,3.993,0,0,0-1.926,3.44,3.364,3.364,0,0,0,2.218,3.171,34.661,34.661,0,0,0,6.791,2.048,67.131,67.131,0,0,1,7.761,2.254,12.842,12.842,0,0,1,5.189,3.556,9.517,9.517,0,0,1,2.165,6.581,11.326,11.326,0,0,1-1.987,6.495,13.364,13.364,0,0,1-5.96,4.657,24.21,24.21,0,0,1-9.666,1.716,34.106,34.106,0,0,1-9.511-1.352Z" transform="translate(-315.102 -195.881)" fill="#fff"/>
      <path id="Path_95" data-name="Path 95" d="M593,306.135H573.734l-3.676,8.9H560.21l18.514-41.51h9.491l18.558,41.51h-10.1Zm-3.027-7.293L583.4,282.947l-6.583,15.894Z" transform="translate(-404.94 -197.702)" fill="#fff"/>
      <path id="Path_96" data-name="Path 96" d="M749.095,281.229V292.2H768.31v7.711H749.095V315.03h-9.6V273.52h31.367v7.709Z" transform="translate(-534.524 -197.702)" fill="#fff"/>
      <path id="Path_97" data-name="Path 97" d="M902.366,317.621a13.279,13.279,0,0,1-4.892,3.792,15.146,15.146,0,0,1-6.317,1.306,17.513,17.513,0,0,1-8.357-1.99,35.841,35.841,0,0,1-8.54-7.027,23.312,23.312,0,0,1-10.054-3.617,20.326,20.326,0,0,1-6.88-7.5,21.2,21.2,0,0,1-2.459-10.167,20.991,20.991,0,0,1,2.935-11,20.685,20.685,0,0,1,8.127-7.681,25.691,25.691,0,0,1,23.27,0,20.775,20.775,0,0,1,11.093,18.68,20.671,20.671,0,0,1-4.064,12.69,21.014,21.014,0,0,1-10.763,7.59,10.6,10.6,0,0,0,2.877,2.218,6.672,6.672,0,0,0,2.991.685,9.013,9.013,0,0,0,6.761-3.085ZM866.284,299.3a12.111,12.111,0,0,0,4.654,4.712,13.89,13.89,0,0,0,13.283,0,12.129,12.129,0,0,0,4.654-4.712,14.841,14.841,0,0,0,0-13.76,12.138,12.138,0,0,0-4.654-4.712,13.89,13.89,0,0,0-13.283,0,12.12,12.12,0,0,0-4.654,4.712A14.841,14.841,0,0,0,866.284,299.3Z" transform="translate(-617.918 -195.844)" fill="#fff"/>
      <path id="Path_98" data-name="Path 98" d="M1057.662,306.135h-19.273l-3.676,8.9h-9.843l18.5-41.51h9.488l18.572,41.51h-10.082Zm-3.027-7.293-6.578-15.894-6.583,15.894Z" transform="translate(-740.799 -197.702)" fill="#fff"/>
      <path id="Path_99" data-name="Path 99" d="M1178.783,281.351H1165.5V273.52h36.174v7.831h-13.286V315.03h-9.6Z" transform="translate(-842.447 -197.702)" fill="#fff"/>
      <path id="Path_100" data-name="Path 100" d="M525.347,63.831a5.386,5.386,0,0,0,3.482-1.17,4.093,4.093,0,0,0,1.447-3.385,4.158,4.158,0,0,0-1.386-3.26,5.664,5.664,0,0,0-7.057,0,4.561,4.561,0,0,0,.036,6.647A5.383,5.383,0,0,0,525.347,63.831Z" transform="translate(-376.172 -39.596)" fill="#fff"/>
      <path id="Path_101" data-name="Path 101" d="M475.8,63.837a5.391,5.391,0,0,0,3.482-1.17,4.552,4.552,0,0,0,.03-6.644,5.616,5.616,0,0,0-7.024,0,4.555,4.555,0,0,0,.031,6.647,5.391,5.391,0,0,0,3.482,1.167Z" transform="translate(-340.357 -39.602)" fill="#fff"/>
      <path id="Path_102" data-name="Path 102" d="M474.559,121.5H456.838a26.407,26.407,0,0,1-5.317-.507,9.045,9.045,0,0,1-4.114-1.9,6.825,6.825,0,0,1-2.057-3.257,16.907,16.907,0,0,1-.6-4.843V100.11h-8.87v11.961a28.176,28.176,0,0,0,.948,7.373,12.005,12.005,0,0,0,3.29,5.727,17.985,17.985,0,0,0,3.071,2.373,16.848,16.848,0,0,0,3.576,1.616,23.264,23.264,0,0,0,4.272.918,42.716,42.716,0,0,0,5.159.277h27.212V94.73h-8.87Z" transform="translate(-315.072 -68.471)" fill="#fff"/>
      <path id="Path_103" data-name="Path 103" d="M887.578,51.724a5.377,5.377,0,0,0,3.493-1.173,4.08,4.08,0,0,0,1.458-3.385,4.158,4.158,0,0,0-1.386-3.26,5.116,5.116,0,0,0-3.545-1.234,5.178,5.178,0,0,0-3.512,1.234,4.555,4.555,0,0,0,.033,6.644A5.369,5.369,0,0,0,887.578,51.724Z" transform="translate(-638.009 -30.843)" fill="#fff"/>
      <path id="Path_104" data-name="Path 104" d="M837.983,51.731a5.369,5.369,0,0,0,3.479-1.173,4.555,4.555,0,0,0,.033-6.644,5.621,5.621,0,0,0-7.027,0,4.549,4.549,0,0,0,.033,6.644A5.378,5.378,0,0,0,837.983,51.731Z" transform="translate(-602.143 -30.85)" fill="#fff"/>
      <path id="Path_105" data-name="Path 105" d="M1008.3,49.547a6.1,6.1,0,0,0,7.276,0A4.2,4.2,0,0,0,1017.122,46a4.277,4.277,0,0,0-1.489-3.387,5.926,5.926,0,0,0-7.4,0A4.269,4.269,0,0,0,1006.743,46,4.207,4.207,0,0,0,1008.3,49.547Z" transform="translate(-727.695 -29.866)" fill="#fff"/>
      <path id="Path_106" data-name="Path 106" d="M808.626,67.185a12.048,12.048,0,0,0-2.85-5.475,13.934,13.934,0,0,0-5.633-3.64,23.183,23.183,0,0,0-7.531-1.109h-19.3V53.8h-8.87V80.576h-16.8V53.8H737.2a29.518,29.518,0,0,0-8.684,1.2,19.173,19.173,0,0,0-6.708,3.512,16.1,16.1,0,0,0-4.332,5.616,17.314,17.314,0,0,0-1.55,7.468,14.091,14.091,0,0,0,.832,4.937,15.765,15.765,0,0,0,2.218,4.05H705.948V53.8H695.5a29.532,29.532,0,0,0-8.671,1.2,19.126,19.126,0,0,0-6.705,3.512,16.076,16.076,0,0,0-4.338,5.616,17.314,17.314,0,0,0-1.55,7.468,14.094,14.094,0,0,0,.832,4.937,15.765,15.765,0,0,0,2.218,4.05H631.74V38.11h-8.87V89.435H809.457v-15a30.245,30.245,0,0,0-.832-7.251ZM697.08,80.576H687.9a11.4,11.4,0,0,1-3.512-3.8,10.3,10.3,0,0,1-1.3-5.189,8.075,8.075,0,0,1,.887-3.828,8.849,8.849,0,0,1,2.309-2.816,9.774,9.774,0,0,1,3.293-1.71,12.823,12.823,0,0,1,3.764-.554h3.734Zm41.693,0h-9.178a11.4,11.4,0,0,1-3.512-3.8,10.3,10.3,0,0,1-1.3-5.189,8.038,8.038,0,0,1,.887-3.828,8.813,8.813,0,0,1,2.309-2.816,9.787,9.787,0,0,1,3.29-1.71,12.837,12.837,0,0,1,3.764-.554h3.737Zm61.814,0H773.308V65.768H793.5a7.047,7.047,0,0,1,3.135.693,6.178,6.178,0,0,1,2.245,1.774,6.787,6.787,0,0,1,1.3,2.495,11.9,11.9,0,0,1,.413,3.326Z" transform="translate(-450.231 -27.546)" fill="#fff"/>
      <path id="Path_107" data-name="Path 107" d="M448.872,506.355a3.964,3.964,0,0,1-1.452-.74l.554-1.225a4.365,4.365,0,0,0,1.281.674,4.651,4.651,0,0,0,1.525.261,2.628,2.628,0,0,0,1.414-.3.923.923,0,0,0,.468-.8.771.771,0,0,0-.261-.6,1.843,1.843,0,0,0-.663-.371c-.277-.089-.632-.191-1.092-.3a12.558,12.558,0,0,1-1.572-.463,2.581,2.581,0,0,1-1.034-.721,1.96,1.96,0,0,1-.43-1.331,2.27,2.27,0,0,1,.383-1.281,2.594,2.594,0,0,1,1.153-.918,4.712,4.712,0,0,1,1.888-.338,6.061,6.061,0,0,1,1.53.194,4.244,4.244,0,0,1,1.3.554l-.5,1.228a4.952,4.952,0,0,0-1.167-.5,4.333,4.333,0,0,0-1.175-.169,2.5,2.5,0,0,0-1.386.313.981.981,0,0,0-.455.832.748.748,0,0,0,.261.593,1.879,1.879,0,0,0,.663.366c.277.089.632.191,1.092.3a12.088,12.088,0,0,1,1.555.455,2.672,2.672,0,0,1,1.037.723,1.9,1.9,0,0,1,.43,1.311,2.24,2.24,0,0,1-.383,1.275,2.57,2.57,0,0,1-1.159.909,4.712,4.712,0,0,1-1.893.341A6.4,6.4,0,0,1,448.872,506.355Z" transform="translate(-323.414 -359.881)" fill="#fff"/>
      <path id="Path_108" data-name="Path 108" d="M493.313,498.33h1.574v8.5H493.31Z" transform="translate(-356.584 -360.196)" fill="#fff"/>
      <path id="Path_109" data-name="Path 109" d="M530.866,506.831V501.2l-2.805,4.66h-.7l-2.791-4.59v5.563H523.06v-8.5h1.3l3.373,5.635,3.326-5.635h1.3l.014,8.5Z" transform="translate(-378.087 -360.196)" fill="#fff"/>
      <path id="Path_110" data-name="Path 110" d="M586.069,498.693a2.786,2.786,0,0,1,1.258,1.045,3.2,3.2,0,0,1,0,3.221,2.771,2.771,0,0,1-1.258,1.051,4.67,4.67,0,0,1-1.924.366h-1.918v2.453H580.65v-8.5h3.5A4.712,4.712,0,0,1,586.069,498.693Zm-.43,3.908a1.727,1.727,0,0,0,0-2.495,2.425,2.425,0,0,0-1.566-.438h-1.846v3.376h1.846A2.425,2.425,0,0,0,585.639,502.6Z" transform="translate(-419.714 -360.193)" fill="#fff"/>
      <path id="Path_111" data-name="Path 111" d="M627.77,498.33h1.58v7.163h4.435v1.339H627.77Z" transform="translate(-453.773 -360.196)" fill="#fff"/>
      <path id="Path_112" data-name="Path 112" d="M669.77,498.33h1.58v8.5h-1.58Z" transform="translate(-484.13 -360.196)" fill="#fff"/>
      <path id="Path_113" data-name="Path 113" d="M701.083,499.655v2.586h4.1v1.336h-4.1v3.254H699.5v-8.5h6.209v1.325Z" transform="translate(-505.619 -360.196)" fill="#fff"/>
      <path id="Path_114" data-name="Path 114" d="M743.18,498.33h1.577v8.5H743.18Z" transform="translate(-537.192 -360.196)" fill="#fff"/>
      <path id="Path_115" data-name="Path 115" d="M779.285,505.507v1.325H772.91v-8.5h6.206v1.325H774.49v2.218H778.6v1.3H774.49v2.342Z" transform="translate(-558.681 -360.196)" fill="#fff"/>
      <path id="Path_116" data-name="Path 116" d="M818,498.328h3.714a5.316,5.316,0,0,1,2.414.529,3.9,3.9,0,0,1,1.641,1.494,4.551,4.551,0,0,1,0,4.454,3.9,3.9,0,0,1-1.641,1.494,5.316,5.316,0,0,1-2.414.527H818Zm3.64,7.163a3.617,3.617,0,0,0,1.647-.358,2.553,2.553,0,0,0,1.092-1.017,3.279,3.279,0,0,0,0-3.074,2.544,2.544,0,0,0-1.092-1.02,3.652,3.652,0,0,0-1.647-.358h-2.062v5.821Z" transform="translate(-591.272 -360.194)" fill="#fff"/>
      <path id="Path_117" data-name="Path 117" d="M904.958,503.181a2.138,2.138,0,0,1,.413,1.342,1.963,1.963,0,0,1-.848,1.7,4.223,4.223,0,0,1-2.478.6H897.82v-8.5H901.8a3.9,3.9,0,0,1,2.317.59,1.893,1.893,0,0,1,.815,1.622,2.141,2.141,0,0,1-.277,1.109,2.007,2.007,0,0,1-.8.754A2.24,2.24,0,0,1,904.958,503.181Zm-5.561-3.6v2.342h2.234a2.262,2.262,0,0,0,1.27-.3,1.081,1.081,0,0,0,0-1.746,2.262,2.262,0,0,0-1.27-.3Zm4.385,4.8c0-.832-.613-1.225-1.832-1.225H899.4V505.6h2.553c1.22-.008,1.832-.419,1.832-1.236Z" transform="translate(-648.966 -360.196)" fill="#fff"/>
      <path id="Path_118" data-name="Path 118" d="M949.737,505.177v1.339h-6.265v-1.056l3.373-3.2a3.628,3.628,0,0,0,.771-.954,1.825,1.825,0,0,0,.2-.807,1.109,1.109,0,0,0-.4-.912,1.871,1.871,0,0,0-1.178-.313,2.364,2.364,0,0,0-1.99.887l-1.109-.851a3.268,3.268,0,0,1,1.342-1.039,4.661,4.661,0,0,1,1.888-.369,3.473,3.473,0,0,1,2.218.654,2.159,2.159,0,0,1,.832,1.785,2.967,2.967,0,0,1-.277,1.3,5.1,5.1,0,0,1-1.109,1.386l-2.27,2.159Z" transform="translate(-681.724 -359.88)" fill="#fff"/>
      <path id="Path_119" data-name="Path 119" d="M995.308,503.181a2.138,2.138,0,0,1,.413,1.342,1.957,1.957,0,0,1-.848,1.7,4.26,4.26,0,0,1-2.475.6H988.17v-8.5h3.983a3.909,3.909,0,0,1,2.32.59,1.9,1.9,0,0,1,.812,1.622,2.115,2.115,0,0,1-.291,1.109,2.019,2.019,0,0,1-.8.754A2.243,2.243,0,0,1,995.308,503.181Zm-5.544-3.6v2.342H992a2.276,2.276,0,0,0,1.27-.3,1.087,1.087,0,0,0,0-1.746,2.272,2.272,0,0,0-1.27-.3Zm4.382,4.8c0-.832-.613-1.225-1.832-1.225h-2.55V505.6h2.55c1.206-.008,1.818-.419,1.818-1.236Z" transform="translate(-714.272 -360.196)" fill="#fff"/>
      <path id="Path_120" data-name="Path 120" d="M1064,499.666h-2.816V498.33h7.207v1.336h-2.822v7.165h-1.58Z" transform="translate(-767.044 -360.196)" fill="#fff"/>
      <path id="Path_121" data-name="Path 121" d="M1112.857,506.829l-1.735-2.495a3.115,3.115,0,0,1-.33,0h-1.9v2.495h-1.577v-8.5h3.5a4.713,4.713,0,0,1,1.924.366,2.786,2.786,0,0,1,1.258,1.045,3.168,3.168,0,0,1-.031,3.265,2.788,2.788,0,0,1-1.342,1.031l1.94,2.791Zm-.571-6.725a2.431,2.431,0,0,0-1.566-.438h-1.832v3.387h1.846a2.4,2.4,0,0,0,1.566-.444,1.735,1.735,0,0,0,0-2.495Z" transform="translate(-800.387 -360.193)" fill="#fff"/>
      <path id="Path_122" data-name="Path 122" d="M1157.435,504.863h-4.247l-.832,1.965h-1.627l3.825-8.5h1.552l3.828,8.5h-1.663Zm-.521-1.239-1.6-3.714-1.591,3.714Z" transform="translate(-831.771 -360.196)" fill="#fff"/>
      <path id="Path_123" data-name="Path 123" d="M1203.6,498.328h3.712a5.337,5.337,0,0,1,2.417.529,3.908,3.908,0,0,1,1.638,1.494,4.551,4.551,0,0,1,0,4.454,3.908,3.908,0,0,1-1.638,1.494,5.337,5.337,0,0,1-2.417.529H1203.6Zm3.642,7.163a3.6,3.6,0,0,0,1.644-.358,2.562,2.562,0,0,0,1.109-1.017,3.3,3.3,0,0,0,0-3.074,2.55,2.55,0,0,0-1.109-1.02,3.634,3.634,0,0,0-1.644-.358h-2.065v5.821Z" transform="translate(-869.986 -360.194)" fill="#fff"/>
      <path id="Path_124" data-name="Path 124" d="M1261.915,505.507v1.325h-6.375v-8.5h6.2v1.325h-4.626v2.218h4.105v1.3h-4.105v2.342Z" transform="translate(-907.529 -360.196)" fill="#fff"/>
    </g>
  </g>
</svg>
